#!OML:ASF H:\BabyWalks\Project 1\Capture day 1\Session 1\baby.ASF
:FULLY-SPECIFIED
:DEGREES
584
root 12.2643 17.9124 0.391519 -39.3352 87.7601 -48.3216
lowerback 20.7572 1.14217 1.18193
upperback 4.77327 2.09237 0.747697
thorax -6.39483 1.12391 -0.420105
lowerneck -0.734325 0.855389 6.48069
upperneck -12.5098 0.602148 -9.80812
head -3.51139 0.559125 -4.10417
rclavicle 9.64106e-015 1.35174e-014
rhumerus -43.602 18.1182 -83.203
rradius 65.1999
rwrist -7.9837
rhand -11.6056 -15.4758
rfingers 7.12502
rthumb 14.437 -44.9537
lclavicle 9.64106e-015 1.35174e-014
lhumerus -39.0403 -10.0892 71.818
lradius 61.8277
lwrist 0.137867
lhand -2.64067 1.67766
lfingers 7.12502
lthumb 23.0588 30.3181
rfemur -13.5057 13.8799 16.1632
rtibia 25.9896
rfoot -18.4071 3.0497
rtoes -6.09673
lfemur -18.2078 -8.2411 -11.6761
ltibia 34.2512
lfoot -22.5132 -13.034
ltoes -5.02259
585
root 12.2946 17.8771 0.378792 -36.7992 87.6808 -45.9244
lowerback 20.7236 1.19111 1.0512
upperback 4.79439 2.12022 0.653703
thorax -6.35475 1.13912 -0.452552
lowerneck -0.549055 0.84928 6.3299
upperneck -12.972 0.60755 -9.54931
head -3.68417 0.571535 -4.00786
rclavicle -5.26779e-015 -3.18055e-015
rhumerus -43.8564 18.3121 -83.1498
rradius 65.3833
rwrist -8.2095
rhand -11.7097 -15.3337
rfingers 7.12502
rthumb 14.3368 -44.8187
lclavicle -5.26779e-015 -3.18055e-015
lhumerus -38.5771 -9.899 70.8711
lradius 62.0383
lwrist 0.528171
lhand -2.93395 1.80998
lfingers 7.12502
lthumb 22.7774 30.4853
rfemur -13.423 13.8501 16.0657
rtibia 25.7799
rfoot -19.058 3.37132
rtoes -5.4304
lfemur -17.7295 -8.36269 -11.799
ltibia 33.6512
lfoot -23.212 -12.7701
ltoes -3.53311
586
root 12.3241 17.8367 0.366751 -34.9397 87.593 -44.1727
lowerback 20.7147 1.23225 0.911924
upperback 4.82681 2.13796 0.563052
thorax -6.31596 1.15003 -0.47443
lowerneck -0.317368 0.841772 6.15869
upperneck -13.4956 0.61586 -9.25146
head -3.88402 0.586107 -3.89765
rclavicle -6.65929e-015 0
rhumerus -44.0827 18.4063 -83.0806
rradius 65.4886
rwrist -8.34966
rhand -11.9314 -15.2295
rfingers 7.12502
rthumb 14.1231 -44.7295
lclavicle -6.65929e-015 0
lhumerus -38.0318 -9.68338 69.9369
lradius 62.1847
lwrist 0.679564
lhand -3.23589 1.88778
lfingers 7.12502
lthumb 22.4876 30.5984
rfemur -13.3357 13.8424 16.0156
rtibia 25.6354
rfoot -19.7588 3.61673
rtoes -4.67604
lfemur -17.255 -8.38024 -11.9195
ltibia 33.0938
lfoot -24.0227 -12.5283
ltoes -2.11335
587
root 12.3523 17.7929 0.355517 -33.8187 87.4989 -43.1245
lowerback 20.7443 1.26627 0.771625
upperback 4.87001 2.1481 0.473682
thorax -6.28584 1.15772 -0.493334
lowerneck -0.0247275 0.829773 5.98043
upperneck -14.0937 0.623293 -8.92279
head -4.11774 0.600889 -3.77866
rclavicle -3.23025e-014 -1.45113e-014
rhumerus -44.279 18.3801 -83.0018
rradius 65.504
rwrist -8.40373
rhand -12.2778 -15.1616
rfingers 7.12502
rthumb 13.7893 -44.6846
lclavicle -3.23025e-014 -1.45113e-014
lhumerus -37.4014 -9.44798 69.0248
lradius 62.2643
lwrist 0.58391
lhand -3.53509 1.9252
lfingers 7.12502
lthumb 22.2003 30.6703
rfemur -13.2479 13.8852 16.0162
rtibia 25.5689
rfoot -20.4774 3.74836
rtoes -3.96146
lfemur -16.7894 -8.2865 -12.0292
ltibia 32.5851
lfoot -24.9182 -12.302
ltoes -0.878931
588
root 12.3787 17.7484 0.34506 -33.4353 87.4015 -42.7756
lowerback 20.8304 1.29141 0.635342
upperback 4.92142 2.1493 0.38335
thorax -6.27641 1.1614 -0.51484
lowerneck 0.33984 0.812641 5.80888
upperneck -14.7727 0.629277 -8.57509
head -4.38942 0.615327 -3.65713
rclavicle -4.22417e-015 1.3418e-014
rhumerus -44.4404 18.2217 -82.9193
rradius 65.4163
rwrist -8.38175
rhand -12.736 -15.1276
rfingers 7.12502
rthumb 13.3477 -44.6801
lclavicle -4.22417e-015 1.3418e-014
lhumerus -36.6885 -9.18613 68.1431
lradius 62.278
lwrist 0.263947
lhand -3.81863 1.91697
lfingers 7.12502
lthumb 21.9281 30.6942
rfemur -13.1685 13.9966 16.0668
rtibia 25.6004
rfoot -21.1768 3.73816
rtoes -3.37183
lfemur -16.3425 -8.10177 -12.1208
ltibia 32.1415
lfoot -25.8516 -12.0718
ltoes 0.0832751
589
root 12.4028 17.7055 0.335219 -33.7453 87.3039 -43.0778
lowerback 20.9852 1.30462 0.501574
upperback 4.98894 2.13793 0.2951
thorax -6.28546 1.15966 -0.534152
lowerneck 0.754754 0.796253 5.65855
upperneck -15.526 0.640247 -8.23422
head -4.69311 0.632456 -3.54364
rclavicle 3.27995e-015 5.46658e-015
rhumerus -44.5402 17.9334 -82.8313
rradius 65.2014
rwrist -8.28964
rhand -13.305 -15.1186
rfingers 7.12502
rthumb 12.7992 -44.7063
lclavicle 3.27995e-015 5.46658e-015
lhumerus -35.8869 -8.87945 67.3097
lradius 62.2276
lwrist -0.218486
lhand -4.08798 1.87072
lfingers 7.12502
lthumb 21.6695 30.678
rfemur -13.1112 14.193 16.163
rtibia 25.7608
rfoot -21.8247 3.57533
rtoes -2.9853
lfemur -15.9266 -7.86046 -12.1887
ltibia 31.7897
lfoot -26.7659 -11.8281
ltoes 0.724301
590
root 12.424 17.6663 0.326064 -34.7025 87.2111 -43.9877
lowerback 21.2223 1.3048 0.366491
upperback 5.07279 2.11177 0.209436
thorax -6.31982 1.15156 -0.548356
lowerneck 1.19192 0.782944 5.53084
upperneck -16.3305 0.658721 -7.91132
head -5.01727 0.653015 -3.44152
rclavicle 3.13086e-015 2.70347e-014
rhumerus -44.562 17.5164 -82.7385
rradius 64.8361
rwrist -8.13788
rhand -13.9735 -15.1354
rfingers 7.12502
rthumb 12.1546 -44.7623
lclavicle 3.13086e-015 2.70347e-014
lhumerus -34.9983 -8.51892 66.5409
lradius 62.1206
lwrist -0.777566
lhand -4.33812 1.81088
lfingers 7.12502
lthumb 21.4292 30.6457
rfemur -13.1035 14.4715 16.2961
rtibia 26.0931
rfoot -22.3967 3.28179
rtoes -2.87499
lfemur -15.5657 -7.60636 -12.2274
ltibia 31.5614
lfoot -27.6076 -11.5736
ltoes 1.05203
591
root 12.4417 17.6319 0.317849 -36.0199 87.1313 -45.2401
lowerback 21.5331 1.29526 0.207544
upperback 5.17093 2.06962 0.126155
thorax -6.37769 1.13676 -0.544169
lowerneck 1.60975 0.775263 5.44004
upperneck -17.1488 0.686191 -7.62762
head -5.3434 0.676968 -3.359
rclavicle -2.64881e-014 8.27441e-015
rhumerus -44.4953 16.9734 -82.644
rradius 64.3002
rwrist -7.92945
rhand -14.7597 -15.1734
rfingers 7.12502
rthumb 11.3966 -44.8437
lclavicle -2.64881e-014 8.27441e-015
lhumerus -34.0226 -8.09469 65.8557
lradius 61.96
lwrist -1.33222
lhand -4.58826 1.73886
lfingers 7.12502
lthumb 21.189 30.6009
rfemur -13.2037 14.8124 16.4381
rtibia 26.6554
rfoot -22.887 2.90357
rtoes -3.07489
lfemur -15.3111 -7.37648 -12.2434
ltibia 31.5001
lfoot -28.3427 -11.3306
ltoes 1.13418
592
root 12.4554 17.602 0.310562 -37.4769 87.0729 -46.6375
lowerback 21.9039 1.27471 0.00372698
upperback 5.28424 2.00462 0.0459154
thorax -6.4511 1.11229 -0.506387
lowerneck 1.94598 0.781132 5.37817
upperneck -17.9274 0.732108 -7.38259
head -5.64366 0.707958 -3.29348
rclavicle 5.96354e-016 1.78906e-015
rhumerus -44.3221 16.3398 -82.548
rradius 63.5778
rwrist -7.66977
rhand -15.666 -15.2534
rfingers 7.12502
rthumb 10.5223 -44.9701
lclavicle 5.96354e-016 1.78906e-015
lhumerus -32.971 -7.59213 65.2673
lradius 61.7679
lwrist -1.819
lhand -4.84082 1.67399
lfingers 7.12502
lthumb 20.9464 30.563
rfemur -13.4742 15.1731 16.5612
rtibia 27.5104
rfoot -23.3051 2.51404
rtoes -3.54198
lfemur -15.2075 -7.20359 -12.2463
ltibia 31.6421
lfoot -28.9576 -11.1193
ltoes 1.06182
